<svg xmlns="http://www.w3.org/2000/svg" viewBox="0 0 120 48" role="img" aria-labelledby="title desc">
  <title id="title">Google Ads logo</title>
  <desc id="desc">Stylised illustration of the Google Ads logo with yellow and blue shapes and a green circle.</desc>
  <defs>
    <linearGradient id="googleBlue" x1="0%" y1="0%" x2="0%" y2="100%">
      <stop offset="0%" stop-color="#4385f4" />
      <stop offset="100%" stop-color="#2a63d4" />
    </linearGradient>
    <linearGradient id="googleYellow" x1="0%" y1="0%" x2="100%" y2="100%">
      <stop offset="0%" stop-color="#fbbc05" />
      <stop offset="100%" stop-color="#f29900" />
    </linearGradient>
  </defs>
  <rect width="120" height="48" rx="12" fill="rgba(255,255,255,0.08)" />
  <path d="M38 10c-3.3 0-6 2.7-6 6v20c0 3.3 2.7 6 6 6h5.6c2.6 0 4.9-1.5 6-3.9l11.8-26.2c1.5-3.3-0.9-6.9-4.5-6.9z" fill="url(#googleYellow)" />
  <path d="M59.8 5c-2.7 0-5.2 1.5-6.4 4l-2.6 5.6 11.7 25.9c1.1 2.4 3.4 3.9 6 3.9H74c3.3 0 6-2.7 6-6V11c0-3.3-2.7-6-6-6z" fill="url(#googleBlue)" />
  <circle cx="33" cy="34" r="7" fill="#34a853" />
</svg>
