<svg xmlns="http://www.w3.org/2000/svg" viewBox="0 0 120 48" role="img" aria-labelledby="title desc">
  <title id="title">Meta Ads logo</title>
  <desc id="desc">Stylised illustration of the Meta Ads infinity loop mark.</desc>
  <rect width="120" height="48" rx="12" fill="rgba(255,255,255,0.08)" />
  <path d="M38 15c-9 0-15 7.7-15 18s6 18 14 18c6 0 10.6-5.4 15.1-11.8C56.6 32.7 61 27 65 27c4.5 0 7.5 4.2 7.5 9.2 0 4.7-2 9.8-6.5 9.8-4.3 0-7.6-5-10.5-9.6l-2.1-3.2C48.3 26.4 44 21 39 21c-3 0-6 2.3-6 6 0 3.6 2.4 6 5.6 6 2.3 0 4.3-1.4 6-3.6l3.9-5.4c1.3-1.8 3.5-3 5.6-3 5.6 0 10 4.9 13.7 10.2 4.2 6.3 7.7 12.8 14.2 12.8 8.5 0 13-8.3 13-17.8C94 24.4 87 15 78 15c-6.2 0-11.8 3.8-18.5 13C54.8 20.4 48.4 15 38 15z" fill="#0a84ff" fill-opacity="0.85" />
</svg>
